<?xml version="1.0" encoding="utf-8"?>
<!-- Generator: Adobe Illustrator 17.1.0, SVG Export Plug-In . SVG Version: 6.00 Build 0)  -->
<!DOCTYPE svg PUBLIC "-//W3C//DTD SVG 1.1//EN" "http://www.w3.org/Graphics/SVG/1.1/DTD/svg11.dtd">
<svg version="1.1" id="Layer_1" xmlns="http://www.w3.org/2000/svg" xmlns:xlink="http://www.w3.org/1999/xlink" x="0px" y="0px"
	 width="612px" height="792px" viewBox="0 0 612 792" enable-background="new 0 0 612 792" xml:space="preserve">
<g id="miu">
	<g id="editor_list_view_hambuger_menu_glyph">
		<g>
			<path id="path-1" fill="#FFFFFF" d="M71.7,146c-6.2,0-11.2,4.8-11.2,11.3v22.2c0,6.2,4.9,11.3,11.2,11.3h470
				c6.2,0,11.2-4.8,11.2-11.3v-22.2c0-6.2-4.9-11.3-11.2-11.3H71.7z M71.7,257.9c-6.2,0-11.2,4.8-11.2,11.3v22.2
				c0,6.2,4.9,11.3,11.2,11.3h470c6.2,0,11.2-4.8,11.2-11.3v-22.2c0-6.2-4.9-11.3-11.2-11.3H71.7z M71.7,369.8
				c-6.2,0-11.2,4.8-11.2,11.3v22.2c0,6.2,4.9,11.3,11.2,11.3h470c6.2,0,11.2-4.8,11.2-11.3v-22.2c0-6.2-4.9-11.3-11.2-11.3H71.7z"
				/>
		</g>
		<g>
			<path id="path-1_1_" fill="none" d="M71.7,146c-6.2,0-11.2,4.8-11.2,11.3v22.2c0,6.2,4.9,11.3,11.2,11.3h470
				c6.2,0,11.2-4.8,11.2-11.3v-22.2c0-6.2-4.9-11.3-11.2-11.3H71.7z M71.7,257.9c-6.2,0-11.2,4.8-11.2,11.3v22.2
				c0,6.2,4.9,11.3,11.2,11.3h470c6.2,0,11.2-4.8,11.2-11.3v-22.2c0-6.2-4.9-11.3-11.2-11.3H71.7z M71.7,369.8
				c-6.2,0-11.2,4.8-11.2,11.3v22.2c0,6.2,4.9,11.3,11.2,11.3h470c6.2,0,11.2-4.8,11.2-11.3v-22.2c0-6.2-4.9-11.3-11.2-11.3H71.7z"
				/>
		</g>
	</g>
</g>
</svg>
